<?xml version="1.0" standalone="no"?><!DOCTYPE svg PUBLIC "-//W3C//DTD SVG 1.1//EN" "http://www.w3.org/Graphics/SVG/1.1/DTD/svg11.dtd"><svg t="1762869475091" class="icon" viewBox="0 0 1024 1024" version="1.1" xmlns="http://www.w3.org/2000/svg" p-id="6618" xmlns:xlink="http://www.w3.org/1999/xlink" width="200" height="200"><path d="M950.857143 73.142857v219.428572h73.142857v658.285714h-146.285714v73.142857H146.285714v-73.142857H0V292.571429h73.142857V73.142857h365.714286v73.142857h73.142857v73.142857h73.142857V146.285714h73.142857V73.142857h292.571429z" fill="#000000" p-id="6619"></path><path d="M877.714286 146.285714h-146.285715v73.142857H658.285714v73.142858H438.857143V219.428571H365.714286V146.285714H146.285714v219.428572H73.142857v512h146.285714v73.142857h585.142858v-73.142857h146.285714V365.714286h-73.142857V146.285714z" fill="#000000" p-id="6620"></path><path d="M512 585.142857h146.285714v73.142857h146.285715v73.142857h73.142857v73.142858h73.142857v73.142857h-146.285714v73.142857H219.428571v-73.142857H73.142857v-73.142857h146.285714v-73.142858h146.285715V658.285714h146.285714V585.142857z" fill="#FFFFFF" p-id="6621"></path><path d="M292.571429 658.285714h219.428571V438.857143H292.571429z" fill="#FFD600" p-id="6622"></path><path d="M365.714286 658.285714h146.285714V438.857143H365.714286z" fill="#000000" p-id="6623"></path><path d="M438.857143 512h73.142857V438.857143H438.857143z" fill="#FFFFFF" p-id="6624"></path><path d="M585.142857 658.285714h73.142857V585.142857H585.142857v73.142857zM585.142857 804.571429h73.142857v-73.142858H438.857143v146.285715h146.285714v-73.142857z" fill="#FB7C7C" p-id="6625"></path><path d="M658.285714 658.285714h219.428572V438.857143H658.285714z" fill="#FFD600" p-id="6626"></path><path d="M877.714286 658.285714h-146.285715V438.857143h146.285715z" fill="#000000" p-id="6627"></path><path d="M804.571429 512h73.142857V438.857143h-73.142857z" fill="#FFFFFF" p-id="6628"></path></svg>