<svg width="407" height="367" xmlns="http://www.w3.org/2000/svg" p-id="4954" version="1.1" class="icon" t="1762870222145">

 <g>
  <title>Layer 1</title>
  <path transform="rotate(-180 202.539 183.494)" stroke="null" stroke-width="0" id="svg_1" p-id="4955" fill="#ffffff" d="m372.05149,287.41055c-5.38418,11.05934 -11.4018,21.10527 -17.82662,29.87343l-0.31672,0.44061c-22.84884,30.97495 -52.21299,47.49787 -87.23279,49.12813c-27.14714,1.27777 -57.91389,-6.47698 -91.39536,-22.99989c-26.55895,-13.08615 -54.9277,-31.72399 -84.3371,-55.34074c-49.95073,-40.13966 -86.2374,-81.51303 -86.59936,-81.90958l-4.34354,-4.9789l5.06747,-4.09768c82.39156,-66.53226 238.98528,-193.03168 242.69539,-196.20408c0.99539,-0.83716 2.21702,-1.32183 3.43864,-1.32183c0.18098,0 0.40721,0 0.58819,0.04406c2.57898,0.30843 4.02683,2.20305 7.14875,6.43292c1.85505,2.51148 4.34354,6.03637 7.64644,10.79497c5.97237,8.63598 13.34734,19.60719 19.86265,29.30063c4.16256,6.16855 8.41561,12.46929 11.31131,16.74322c6.83203,-3.48083 20.17937,-3.12834 34.47686,1.01341c17.82662,5.15515 34.34113,15.46545 46.51209,28.94814c16.74073,18.59378 25.6088,42.73927 26.28748,71.73147c0.81441,34.67609 -10.27067,75.87321 -32.98377,122.40173zm-124.42437,-285.95653l0.13574,-0.13218l-0.13574,0.13218zm146.3683,159.89773c-1.4026,-26.12823 -10.36116,-47.4538 -26.60419,-63.35986c-14.97617,-14.67235 -32.03362,-20.57653 -40.90168,-22.82365c-11.44704,-2.86397 -19.81741,-2.42336 -23.16556,-1.36589l0.40721,2.33524l-3.98158,1.98275c-1.13113,0.57279 -4.02683,1.49808 -6.74154,-1.98275c-0.27147,-0.35249 -0.63343,-0.83716 -1.08589,-1.49808c-0.76917,-1.10153 -1.9003,-2.73179 -3.39339,-4.93484c-2.8052,-4.09768 -6.69629,-9.86969 -10.76836,-15.95012c-8.37037,-12.46929 -21.49148,-31.9443 -27.23763,-39.74311c-25.78978,20.97308 -165.59753,133.90168 -233.96306,189.1543c11.03984,12.02868 41.67085,44.2814 80.89846,75.74103c45.019,36.1301 110.8508,78.64906 168.80994,75.91727c27.5091,-1.27777 51.2176,-12.73366 70.58255,-34.10329c-7.51071,0.17624 -17.73613,0 -29.36415,-1.27777c-22.44163,-2.46742 -54.65623,-9.78156 -80.5365,-30.44622l6.33433,-9.78156c23.88948,19.03439 53.97755,25.8198 75.01658,28.1991c18.36956,2.07087 33.25524,1.18965 38.63942,0.74904c5.56516,-7.79881 10.81361,-16.69916 15.56436,-26.43666c2.21702,-4.58235 4.34354,-9.07659 6.33433,-13.57082c-7.23924,0.26437 -18.77677,0.17624 -32.2146,-1.63026c-29.86185,-4.00956 -54.56574,-14.84859 -71.48746,-31.3715l7.19399,-9.03253c19.22922,18.77003 46.15013,25.8198 65.37935,28.41941c17.32892,2.33524 31.7169,1.63026 36.42241,1.23371c6.10811,-14.89265 10.81361,-29.03626 14.11651,-42.4749c-1.4026,-0.08812 -2.89569,-0.17624 -4.43403,-0.26437c-22.80359,-1.18965 -70.22059,-3.65707 -95.28644,-35.73355l8.23463,-7.88694c22.03442,28.15504 66.3295,30.49028 87.59476,31.59181c2.53373,0.13218 4.7055,0.26437 6.56056,0.39655c2.71471,-14.2758 3.75535,-27.67037 3.07668,-40.05154z"/>
 </g>
</svg>