<?xml version="1.0" standalone="no"?><!DOCTYPE svg PUBLIC "-//W3C//DTD SVG 1.1//EN" "http://www.w3.org/Graphics/SVG/1.1/DTD/svg11.dtd"><svg t="1762869250377" class="icon" viewBox="0 0 1024 1024" version="1.1" xmlns="http://www.w3.org/2000/svg" p-id="1630" xmlns:xlink="http://www.w3.org/1999/xlink" width="200" height="200"><path d="M568.888 910.215H341.334V682.667h227.554v227.548z m113.778 0H568.889V568.896h113.777v341.319zM341.333 796.444H227.556V568.896h113.777v227.548z m568.888-113.77H796.445v113.77H682.667V568.896h227.554v113.778z m-682.666 0H113.776V568.896h113.779v113.778z m0-113.792H113.776V455.104h113.779v113.778z m113.778 0H227.556V341.333h113.777v227.549z m341.333 0H568.889v-341.32h113.777v341.32z m113.779-113.778h113.776v113.778H682.667V341.333h113.778v113.771zM455.111 341.333h113.777v113.778H341.334V227.562h113.777v113.771z" fill="#6F47B3" p-id="1631"></path><path d="M568.888 568.893v113.778H341.334V568.893h227.554z m0-0.014H341.334V455.102h227.554v113.777z" fill="#9F65FF" p-id="1632"></path><path d="M568.887 227.565v113.778H455.109V227.565h113.778z m0-113.792v113.779H455.109V113.773h113.778z" fill="#00812E" p-id="1633"></path></svg>