<?xml version="1.0" standalone="no"?><!DOCTYPE svg PUBLIC "-//W3C//DTD SVG 1.1//EN" "http://www.w3.org/Graphics/SVG/1.1/DTD/svg11.dtd"><svg t="1762870222145" class="icon" viewBox="0 0 1024 1024" version="1.1" xmlns="http://www.w3.org/2000/svg" p-id="4954" width="256" height="256" xmlns:xlink="http://www.w3.org/1999/xlink"><path d="M887.3 306c-11.9-25.1-25.2-47.9-39.4-67.8l-0.7-1c-50.5-70.3-115.4-107.8-192.8-111.5-60-2.9-128 14.7-202 52.2-58.7 29.7-121.4 72-186.4 125.6-110.4 91.1-190.6 185-191.4 185.9L65 500.7l11.2 9.3c182.1 151 528.2 438.1 536.4 445.3 2.2 1.9 4.9 3 7.6 3 0.4 0 0.9 0 1.3-0.1 5.7-0.7 8.9-5 15.8-14.6 4.1-5.7 9.6-13.7 16.9-24.5 13.2-19.6 29.5-44.5 43.9-66.5 9.2-14 18.6-28.3 25-38 15.1 7.9 44.6 7.1 76.2-2.3 39.4-11.7 75.9-35.1 102.8-65.7 37-42.2 56.6-97 58.1-162.8 1.8-78.7-22.7-172.2-72.9-277.8z m-275 649l0.3 0.3-0.3-0.3z m323.5-362.9c-3.1 59.3-22.9 107.7-58.8 143.8-33.1 33.3-70.8 46.7-90.4 51.8-25.3 6.5-43.8 5.5-51.2 3.1l0.9-5.3-8.8-4.5c-2.5-1.3-8.9-3.4-14.9 4.5-0.6 0.8-1.4 1.9-2.4 3.4-1.7 2.5-4.2 6.2-7.5 11.2-6.2 9.3-14.8 22.4-23.8 36.2-18.5 28.3-47.5 72.5-60.2 90.2-57-47.6-366-303.9-517.1-429.3 24.4-27.3 92.1-100.5 178.8-171.9 99.5-82 245-178.5 373.1-172.3 60.8 2.9 113.2 28.9 156 77.4-16.6-0.4-39.2 0-64.9 2.9-49.6 5.6-120.8 22.2-178 69.1l14 22.2c52.8-43.2 119.3-58.6 165.8-64 40.6-4.7 73.5-2.7 85.4-1.7 12.3 17.7 23.9 37.9 34.4 60 4.9 10.4 9.6 20.6 14 30.8-16-0.6-41.5-0.4-71.2 3.7-66 9.1-120.6 33.7-158 71.2l15.9 20.5c42.5-42.6 102-58.6 144.5-64.5 38.3-5.3 70.1-3.7 80.5-2.8 13.5 33.8 23.9 65.9 31.2 96.4-3.1 0.2-6.4 0.4-9.8 0.6-50.4 2.7-155.2 8.3-210.6 81.1l18.2 17.9c48.7-63.9 146.6-69.2 193.6-71.7 5.6-0.3 10.4-0.6 14.5-0.9 6 32.4 8.3 62.8 6.8 90.9z" fill="#ffffff" p-id="4955"></path></svg>